<?xml version="1.0" encoding="utf-8"?>
<!DOCTYPE svg PUBLIC "-//W3C//DTD SVG 1.1//EN" "http://www.w3.org/Graphics/SVG/1.1/DTD/svg11.dtd">
<svg width="76" height="76" xmlns="http://www.w3.org/2000/svg" xmlns:svg="http://www.w3.org/2000/svg">
 <g>
  <title>Layer 1</title>
  <path id="svg_1" d="m10.46513,75.36297l0,-37.29092l-3.9532,4.14348l-5.93,-10.3586l37.55681,-31.0758l37.55701,31.0758l-5.9302,10.3586l-3.9532,-4.14348l0,37.29092l-55.34722,0zm27.67361,-60.25252l-21.74341,18.81812l0,35.21929l43.48682,0l0,-35.21929l-21.74341,-18.81812z" stroke-linejoin="round" stroke-width="0.2" fill="#000000"/>
  <path id="svg_3" d="m36.67643,23.9861c5.95778,0 10.78747,3.11924 10.78747,6.96713c0,2.44013 -1.94237,4.58731 -4.88302,5.83174c0.62691,1.26284 1.7275,2.65172 2.82808,4.40103c-2.28875,-0.83316 -5.71079,-1.63878 -7.74146,-3.29468l-0.99107,0.02904c-5.95771,0 -10.7874,-3.1193 -10.7874,-6.96713c0,-3.84789 4.82969,-6.96713 10.7874,-6.96713zm2.56844,16.61386c0,3.2559 -3.67973,5.8953 -8.21896,5.8953l-0.62471,-0.01679c-1.67079,1.6134 -3.98952,3.23241 -6.56692,3.23241c0.60018,-1.25242 1.90169,-2.50477 2.67536,-4.18464c-2.23062,-1.05416 -3.70276,-2.8669 -3.70276,-4.92629c0,-2.05851 1.47104,-3.87063 3.70023,-4.92507c1.90818,1.96253 5.28922,3.26707 9.1421,3.26707l0.99107,-0.02904c0.72695,0.59287 1.63232,1.0767 2.60017,1.4919l0.00441,0.19514l0.00001,0.00001z" stroke-linejoin="round" stroke-width="0.2" fill="#000000"/>
  <path fill="#000000" stroke-width="0.2" stroke-linejoin="round" d="m55.33421,61.89876c1.63874,0 2.96726,1.3238 2.96726,2.95672c0,1.63292 -1.32851,2.95672 -2.96726,2.95672c-1.63874,0 -2.96726,-1.3238 -2.96726,-2.95672c0,-1.63292 1.32851,-2.95672 2.96726,-2.95672zm2.96726,-18.47949c-13.51986,0 -24.47986,10.92108 -24.47986,24.39292l-3.70907,0c0,-15.51301 12.62063,-28.08882 28.18893,-28.08882l0,3.6959zm0,7.39179c-9.42297,0 -17.06172,7.6117 -17.06172,17.00113l-3.70907,0c0,-11.43067 9.29938,-20.69703 20.77079,-20.69703l0,3.6959zm0,7.39179c-5.326,0 -9.64358,4.30225 -9.64358,9.60933l-3.70907,0c0,-7.34826 5.9782,-13.30523 13.35265,-13.30523l0,3.6959z" id="svg_4"/>
 </g>
</svg>