<?xml version="1.0" encoding="utf-8"?>
<!DOCTYPE svg PUBLIC "-//W3C//DTD SVG 1.1//EN" "http://www.w3.org/Graphics/SVG/1.1/DTD/svg11.dtd">
<svg width="192" height="192" xmlns="http://www.w3.org/2000/svg" xmlns:svg="http://www.w3.org/2000/svg">
 <g>
  <title>Layer 1</title>
  <path fill="#5a9216" stroke-width="0.2" stroke-linejoin="round" d="m25.70228,190.93036l0,-95.07461l-10.04794,10.56396l-15.07242,-26.40964l95.459,-79.22893l95.45951,79.22893l-15.07292,26.40964l-10.04794,-10.56396l0,95.07461l-140.67729,0zm70.33864,-153.61608l-55.26572,47.97751l0,89.79291l110.53144,0l0,-89.79291l-55.26572,-47.97751z" id="svg_1"/>
  <path fill="#bef67a" stroke-width="0.2" stroke-linejoin="round" d="m94.65288,56.25954c18.6297,0 33.73192,9.04673 33.73192,20.20676c0,7.07711 -6.0737,13.30457 -15.26898,16.91379c1.96032,3.66261 5.40181,7.69078 8.84327,12.7643c-7.15681,-2.41641 -17.85737,-4.75295 -24.20718,-9.55556l-3.09903,0.08422c-18.62948,0 -33.7317,-9.0469 -33.7317,-20.20676c0,-11.16003 15.10222,-20.20676 33.7317,-20.20676zm8.03139,48.18516c0,9.44308 -11.50634,17.09813 -25.7003,17.09813l-1.95344,-0.0487c-5.22448,4.67934 -12.47504,9.37495 -20.53445,9.37495c1.87673,-3.63239 5.9465,-7.26458 8.36573,-12.13671c-6.97504,-3.05738 -11.57836,-8.31487 -11.57836,-14.28771c0,-5.97029 4.59987,-11.22598 11.57045,-14.28417c5.96679,5.69192 16.53914,9.47548 28.58692,9.47548l3.09903,-0.08422c2.27314,1.7195 5.10419,3.12275 8.13061,4.32696l0.01379,0.56596l0.00003,0.00003z" id="svg_3"/>
  <path id="svg_4" d="m141.52577,157.86977c3.70807,0 6.71418,3.21389 6.71418,7.17825c0,3.96436 -3.00609,7.17825 -6.71418,7.17825c-3.70807,0 -6.71418,-3.21389 -6.71418,-7.17825c0,-3.96436 3.00609,-7.17825 6.71418,-7.17825zm6.71418,-44.86403c-30.59213,0 -55.39192,26.51392 -55.39192,59.2205l-8.39272,0c0,-37.66209 28.55739,-68.19331 63.78464,-68.19331l0,8.97281zm0,17.9456c-21.32187,0 -38.60649,18.47949 -38.60649,41.27491l-8.39272,0c0,-27.75109 21.04222,-50.24772 46.99921,-50.24772l0,8.97281zm0,17.9456c-12.05143,0 -21.82106,10.44489 -21.82106,23.32928l-8.39272,0c0,-17.83992 13.5272,-32.30209 30.21377,-32.30209l0,8.97281z" stroke-linejoin="round" stroke-width="0.2" fill="#bef67a"/>
 </g>
</svg>