<?xml version="1.0" encoding="utf-8"?>
<!DOCTYPE svg PUBLIC "-//W3C//DTD SVG 1.1//EN" "http://www.w3.org/Graphics/SVG/1.1/DTD/svg11.dtd">
<svg xmlns="http://www.w3.org/2000/svg" xmlns:xlink="http://www.w3.org/1999/xlink" version="1.1" baseProfile="full" width="76" height="76" viewBox="0 0 76.00 76.00" enable-background="new 0 0 76.00 76.00" xml:space="preserve">
	      <path stroke="null" fill="#000000" stroke-width="0.2" stroke-linejoin="round" d="m31.9625,2.125l15.95,0l0,5.52749l11.9625,0l0,66.32982l-39.875,0l0,-66.32982l11.9625,0l0,-5.52749zm-3.9875,64.48734l23.925,0l0,-51.58987l-23.925,0l0,51.58987zm21.93125,-1.8425l-19.9375,0l0,-9.21248l19.9375,-9.21248l0,18.42495l0,0.00001zm-19.9375,-11.97622l0,-14.73996l19.9375,-9.21248l0,14.73996l-19.9375,9.21248zm0,-35.92866l19.9375,0l0,9.21248l-19.9375,9.21248l0,-18.42495l0,-0.00001z" id="svg_1"/></svg>
