<?xml version="1.0" encoding="utf-8"?>
<!DOCTYPE svg PUBLIC "-//W3C//DTD SVG 1.1//EN" "http://www.w3.org/Graphics/SVG/1.1/DTD/svg11.dtd">
<svg xmlns="http://www.w3.org/2000/svg" xmlns:xlink="http://www.w3.org/1999/xlink" version="1.1" baseProfile="full" width="76" height="76" viewBox="0 0 76.00 76.00" enable-background="new 0 0 76.00 76.00" xml:space="preserve">
	   <path stroke="null" id="svg_1" d="m74.3855,27.10173l-25.41418,-25.37413c-1.31789,1.2916 -2.30049,2.71772 -2.94762,4.27856c-0.64693,1.56084 -0.97059,3.15745 -0.97059,4.78964c0,1.60841 0.32567,3.19303 0.9766,4.75386l-15.86311,15.81863c-1.33371,-0.68937 -2.7211,-1.20825 -4.16216,-1.55684c-1.44106,-0.34858 -2.90376,-0.52308 -4.38848,-0.52308c-2.33434,0 -4.59298,0.42194 -6.7763,1.26582c-2.18353,0.84388 -4.13252,2.11749 -5.84757,3.82104l13.51695,13.45349l-8.67582,9.96545l-6.50832,7.87374l-4.11469,5.47882c-0.95657,1.41033 -1.43505,2.33736 -1.43505,2.78108l-0.03565,0.19008l0.0715,0.03578l0,0.11873l0.0713,-0.08315l0.15482,0.03558c0.44464,0 1.37357,-0.46931 2.78679,-1.40833l5.49026,-4.08248l7.88969,-6.51877l10.03356,-8.66985l13.43343,13.4417c1.71506,-1.71154 2.99329,-3.65654 3.83489,-5.8356c0.8416,-2.17885 1.26241,-4.42906 1.26241,-6.75043c0,-1.48968 -0.17285,-2.95138 -0.51814,-4.38549c-0.34529,-1.43411 -0.86744,-2.82066 -1.56424,-4.15963l15.84929,-15.81883c1.56404,0.6418 3.15191,0.96281 4.76362,0.96281c1.64355,0 3.24525,-0.323 4.80548,-0.9686c1.56003,-0.6458 2.98728,-1.6224 4.28133,-2.92959z" stroke-linejoin="round" stroke-width="0.2" fill="#000000"/>
</svg>
