<?xml version="1.0" encoding="utf-8"?>
<!DOCTYPE svg PUBLIC "-//W3C//DTD SVG 1.1//EN" "http://www.w3.org/Graphics/SVG/1.1/DTD/svg11.dtd">
<svg xmlns="http://www.w3.org/2000/svg" xmlns:xlink="http://www.w3.org/1999/xlink" version="1.1" baseProfile="full" width="76" height="76" viewBox="0 0 76.00 76.00" enable-background="new 0 0 76.00 76.00" xml:space="preserve">
   <path stroke="null" fill="#000000" stroke-linejoin="round" d="m43.34477,37.09038l16.53023,0l0,7.36113l-16.53023,0l0,3.68057c0,3.04916 -2.22018,5.52085 -4.95907,5.52085l-11.57116,0l0,-5.52085l-6.61209,0l0,-5.52085l6.61209,0l0,-3.68057l-6.61209,0l0,-5.52085l6.61209,0l0,-5.52085l11.57116,0c2.73889,0 4.95907,2.47187 4.95907,5.52085l0,3.68057zm-6.61209,-34.96538l13.22419,0l0,5.52085l9.91814,0l0,27.60424l-6.61209,0l0,-20.24311l-19.83628,0l0,11.0417l-6.61209,0l0,-18.40283l9.91814,0l0,-5.52085l-0.00001,-0.00001zm-3.30605,64.40991l19.83628,0l0,-20.24311l6.61209,0l0,27.60424l-33.06047,0l0,-18.40283l6.61209,0l0,11.0417l0.00001,-0.00001z" id="svg_1"/>
</svg>
