<?xml version="1.0" encoding="utf-8"?>
<!DOCTYPE svg PUBLIC "-//W3C//DTD SVG 1.1//EN" "http://www.w3.org/Graphics/SVG/1.1/DTD/svg11.dtd">
<svg width="512" height="512" xmlns="http://www.w3.org/2000/svg" xmlns:svg="http://www.w3.org/2000/svg">
 <g>
  <title>Layer 1</title>
  <path id="svg_1" d="m80.59627,491.93037l0,-237.07461l-25.20523,26.34191l-37.80912,-65.85412l239.45862,-197.5624l239.45989,197.5624l-37.81037,65.85412l-25.20523,-26.34191l0,237.07461l-352.88856,0zm176.44427,-383.05151l-138.63389,119.63499l0,223.90436l277.26779,0l0,-223.90436l-138.63389,-119.63499z" stroke-linejoin="round" stroke-width="0.2" fill="#5a9216"/>
  <path id="svg_3" d="m239.96531,172.25955c37.23491,0 67.4195,18.98959 67.4195,42.4151c0,14.85524 -12.13942,27.92703 -30.51789,35.50298c3.91806,7.68802 10.79652,16.14337 17.67492,26.79297c-14.30421,-5.07218 -35.69127,-9.9767 -48.38254,-20.05765l-6.19399,0.17678c-37.23447,0 -67.41906,-18.98994 -67.41906,-42.4151c0,-23.42552 30.18459,-42.4151 67.41906,-42.4151l0,0.00002zm16.05222,101.14331c0,19.82155 -22.99756,35.88992 -51.36682,35.88992l-3.90431,-0.10222c-10.44209,9.82219 -24.93368,19.67854 -41.04191,19.67854c3.75099,-7.62459 11.88518,-15.24875 16.72046,-25.47562c-13.94091,-6.41761 -23.1415,-17.45337 -23.1415,-29.99069c0,-12.53197 9.19369,-23.56395 23.12569,-29.98326c11.92574,11.94765 33.05654,19.88956 57.13626,19.88956l6.19399,-0.17678c4.54329,3.60933 10.20167,6.55482 16.25053,9.08253l0.02756,1.18798l0.00006,0.00006l-0.00002,0z" stroke-linejoin="round" stroke-width="0.2" fill="#bef67a"/>
  <path fill="#bef67a" stroke-width="0.2" stroke-linejoin="round" d="m363.10469,399.13293c9.46336,0 17.13524,8.30383 17.13524,18.54668c0,10.24285 -7.67184,18.54668 -17.13524,18.54668c-9.46336,0 -17.13524,-8.30383 -17.13524,-18.54668c0,-10.24285 7.67184,-18.54668 17.13524,-18.54668zm17.13524,-115.91666c-78.07411,0 -141.3656,68.50488 -141.3656,153.00994l-21.41904,0c0,-97.30877 72.88125,-176.19328 162.78464,-176.19328l0,23.18334zm0,46.36663c-54.4155,0 -98.52754,47.74606 -98.52754,106.64333l-21.41904,0c0,-71.7014 53.7018,-129.82667 119.94658,-129.82667l0,23.18334zm0,46.36663c-30.75643,0 -55.68948,26.9868 -55.68948,60.27662l-21.41904,0c0,-46.09358 34.52274,-83.45996 77.1085,-83.45996l0,23.18334l0.00003,0z" id="svg_4"/>
 </g>
</svg>